# xmcd CD database file
#
# Track frame offsets:
#	150
#	14953
#	32281
#	49267
#	60764
#	71557
#	86938
#	101644
#	119475
#	143598
#	160893
#
# Disc length: 2371 seconds
#
# Revision: 0
# Processed by: cddbd v1.5.1PL0 Copyright (c) Steve Scherf et al.
# Submitted via: CDex 1.51
#
DISCID=9309410b
DTITLE=Badrock Blues Band - Playin' the Blues
DYEAR=1999
DGENRE=Blues
TTITLE0=Automatic
TTITLE1=Let's Walk Together
TTITLE2=The Thrill is Gone
TTITLE3=Moving On
TTITLE4=Whammer Jammer
TTITLE5=Brown Sugar
TTITLE6=Confidence Man
TTITLE7=Hoochie Coochie Man
TTITLE8=The Blues Is Allright
TTITLE9=I'm Ready
TTITLE10=Dust My Broom
EXTD=YEAR: 1999
EXTT0=
EXTT1=
EXTT2=
EXTT3=
EXTT4=
EXTT5=
EXTT6=
EXTT7=
EXTT8=
EXTT9=
EXTT10=
PLAYORDER=
